<?xml version="1.0" standalone="no"?>
<!DOCTYPE svg PUBLIC "-//W3C//DTD SVG 20010904//EN"
 "http://www.w3.org/TR/2001/REC-SVG-20010904/DTD/svg10.dtd">
<svg version="1.0" xmlns="http://www.w3.org/2000/svg"
 width="504.000000pt" height="205.000000pt" viewBox="0 0 504.000000 205.000000"
 preserveAspectRatio="xMidYMid meet">

<g transform="translate(0.000000,205.000000) scale(0.100000,-0.100000)"
fill="#000000" stroke="none">
<path d="M3066 1604 c-3 -26 -6 -64 -6 -85 0 -65 -21 -141 -46 -166 -17 -17
-24 -35 -24 -63 0 -36 3 -40 25 -40 21 0 25 5 25 30 l0 30 80 0 80 0 0 -30 c0
-23 4 -30 20 -30 17 0 20 7 20 44 0 30 -5 46 -15 50 -12 4 -15 31 -15 156 l0
150 -69 0 -68 0 -7 -46z m94 -123 l0 -128 -42 -6 c-24 -3 -44 -4 -45 -3 -2 2
3 19 12 38 8 20 17 79 21 132 7 92 8 96 30 96 24 0 24 0 24 -129z"/>
<path d="M3264 1618 c4 -18 19 -92 35 -165 16 -72 26 -136 22 -141 -3 -5 -15
-11 -26 -13 -11 -3 -21 -12 -23 -22 -6 -28 63 -24 82 6 13 20 76 308 76 349 0
24 -37 24 -44 1 -3 -10 -10 -47 -16 -83 -20 -122 -21 -122 -44 -10 -19 96 -23
105 -45 108 -22 3 -23 1 -17 -30z"/>
<path d="M3440 1641 c0 -4 14 -41 32 -80 l31 -72 -31 -83 c-18 -46 -32 -86
-32 -90 0 -4 10 -6 21 -4 16 2 27 17 42 55 11 29 23 50 27 48 4 -3 16 -27 26
-55 14 -40 22 -50 41 -50 13 0 23 4 23 10 0 5 -15 44 -34 86 l-34 77 34 75
c40 88 41 94 12 90 -16 -2 -28 -18 -44 -58 l-22 -55 -25 58 c-20 43 -31 57
-46 57 -12 0 -21 -4 -21 -9z"/>
<path d="M3693 1638 c-36 -17 -45 -57 -41 -176 2 -89 6 -114 21 -130 35 -39
119 -33 146 10 17 27 26 148 16 213 -12 81 -73 116 -142 83z m76 -42 c8 -9 11
-52 9 -127 l-3 -114 -29 -3 c-16 -2 -32 2 -37 10 -12 19 -11 206 1 229 12 22
43 25 59 5z"/>
<path d="M3878 1644 c-5 -4 -8 -81 -8 -171 l0 -163 64 0 c88 0 116 22 116 91
0 36 -5 54 -20 69 -19 19 -19 22 -5 36 22 23 20 97 -4 118 -21 19 -130 34
-143 20z m103 -44 c22 -12 26 -59 7 -78 -7 -7 -23 -12 -37 -12 -25 0 -26 2
-23 50 4 53 14 60 53 40z m3 -143 c13 -10 17 -24 14 -57 -3 -43 -5 -45 -35
-48 l-33 -3 0 60 c0 52 3 61 18 61 10 0 26 -6 36 -13z"/>
<path d="M4097 1644 c-4 -4 -7 -81 -7 -171 l0 -163 30 0 30 0 0 75 0 75 40 0
40 0 0 -75 c0 -73 1 -75 25 -75 l25 0 0 170 0 170 -25 0 c-24 0 -25 -2 -25
-75 l0 -75 -40 0 -39 0 -3 73 c-3 64 -5 72 -23 75 -12 2 -24 0 -28 -4z"/>
<path d="M4330 1481 l0 -171 25 0 25 0 -2 168 c-3 165 -3 167 -25 170 l-23 3
0 -170z"/>
<path d="M4472 1640 c-35 -14 -44 -54 -40 -178 3 -106 5 -115 27 -133 15 -12
39 -19 67 -19 51 0 71 22 76 85 3 35 0 40 -19 43 -20 3 -23 -1 -23 -26 0 -17
-3 -37 -6 -46 -8 -21 -60 -21 -68 0 -10 26 -7 204 4 225 23 42 70 12 70 -45 0
-19 5 -26 20 -26 28 0 33 20 20 69 -15 56 -65 76 -128 51z"/>
<path d="M4627 1643 c-17 -16 -5 -33 23 -33 l30 0 0 -150 0 -150 25 0 25 0 0
150 0 150 30 0 c23 0 30 4 30 20 0 18 -7 20 -78 20 -43 0 -82 -3 -85 -7z"/>
<path d="M4817 1643 c-4 -3 -7 -80 -7 -170 l0 -163 60 0 c51 0 65 4 85 25 24
23 29 43 25 95 -4 43 -19 60 -65 72 -27 7 -46 18 -47 28 0 8 -2 33 -4 55 -1
22 -2 46 -3 53 -1 13 -33 17 -44 5z m109 -198 c24 -37 8 -89 -28 -93 -22 -3
-26 1 -32 30 -3 18 -4 42 -1 53 2 11 4 23 4 28 2 17 42 5 57 -18z"/>
<path d="M985 1590 c-500 -108 -862 -484 -949 -985 -21 -118 -21 -209 0 -229
21 -22 71 -21 83 2 5 9 14 66 20 125 27 266 119 472 295 656 346 361 870 443
1305 205 320 -175 534 -512 558 -877 7 -108 16 -127 62 -127 53 0 61 22 51
146 -24 302 -141 554 -352 761 -155 151 -338 255 -548 310 -134 36 -392 42
-525 13z"/>
<path d="M3000 1160 c0 -15 6 -20 25 -20 l25 0 0 -150 0 -150 28 0 27 0 0 147
0 148 28 3 c20 3 27 8 25 20 -3 14 -18 18 -81 20 -72 3 -77 1 -77 -18z"/>
<path d="M3243 1168 c-5 -7 -22 -74 -37 -148 -15 -74 -30 -145 -33 -157 -4
-19 -1 -23 20 -23 21 0 25 6 31 40 6 37 8 40 40 40 31 0 34 -3 40 -40 5 -35
10 -40 32 -40 19 0 24 4 20 18 -2 9 -19 82 -36 161 -16 79 -33 147 -36 152 -8
13 -30 11 -41 -3z m42 -185 c5 -19 1 -23 -20 -23 -29 0 -29 1 -13 72 l11 53 9
-40 c4 -22 10 -50 13 -62z"/>
<path d="M3495 1155 c-14 -13 -25 -36 -25 -50 0 -20 5 -25 25 -25 17 0 25 5
25 18 0 43 55 57 70 18 13 -35 2 -63 -31 -75 -37 -13 -37 -39 0 -52 19 -7 31
-19 34 -37 13 -65 -43 -102 -64 -42 -19 52 -61 35 -47 -18 16 -60 111 -77 144
-27 27 41 15 145 -16 145 -6 0 -1 9 10 20 33 33 30 95 -6 128 -35 30 -87 30
-119 -3z"/>
<path d="M3726 1148 c-3 -18 -7 -69 -10 -113 -6 -93 -21 -141 -47 -156 -14 -7
-19 -21 -19 -54 0 -39 3 -45 20 -45 15 0 22 9 27 30 l6 30 78 0 c72 0 79 -2
79 -20 0 -11 -5 -20 -11 -20 -20 0 -5 -45 17 -48 25 -4 34 19 34 86 0 30 -4
42 -15 42 -12 0 -15 25 -17 148 l-3 147 -67 3 -67 3 -5 -33z m94 -138 l0 -130
-27 -1 c-16 0 -36 -2 -45 -4 -19 -3 -24 15 -8 31 11 11 30 129 30 192 0 38 2
42 25 42 l25 0 0 -130z"/>
<path d="M3977 1173 c-34 -9 -47 -56 -47 -172 0 -100 2 -112 23 -136 40 -47
139 -33 154 23 5 15 8 76 8 135 0 107 -1 109 -28 133 -27 23 -64 29 -110 17z
m72 -47 c8 -9 11 -52 9 -127 l-3 -114 -29 -3 c-16 -2 -32 2 -37 10 -14 21 -11
222 3 236 16 16 43 15 57 -2z"/>
<path d="M4168 1174 c-5 -4 -8 -81 -8 -171 l0 -163 31 0 c30 0 30 1 29 48 -4
100 -4 100 40 107 49 8 70 35 70 91 0 64 -24 87 -96 92 -32 2 -62 0 -66 -4z
m107 -45 c4 -6 7 -26 8 -45 1 -36 -14 -54 -45 -54 -15 0 -18 9 -18 55 0 52 1
55 24 55 14 0 28 -5 31 -11z"/>
<path d="M4397 1173 c-34 -9 -47 -56 -47 -171 0 -94 3 -113 20 -134 23 -30 60
-39 105 -27 40 11 56 44 63 131 12 166 -32 229 -141 201z m72 -47 c8 -9 11
-52 9 -127 l-3 -114 -29 -3 c-16 -2 -32 2 -37 10 -14 21 -11 222 3 236 16 16
43 15 57 -2z"/>
<path d="M4588 1174 c-5 -4 -8 -81 -8 -171 l0 -163 69 0 c63 0 71 2 90 26 28
36 29 106 1 134 -19 19 -19 22 -5 36 22 23 20 97 -4 118 -21 19 -130 34 -143
20z m103 -44 c22 -12 26 -59 7 -78 -7 -7 -22 -12 -35 -12 -21 0 -23 4 -23 50
0 53 10 61 51 40z m4 -146 c11 -11 15 -30 13 -58 -3 -38 -5 -41 -35 -44 l-33
-3 0 60 c0 54 2 61 19 61 11 0 27 -7 36 -16z"/>
<path d="M4780 1125 c0 -30 4 -55 9 -55 14 0 18 9 25 63 7 43 6 47 -13 47 -19
0 -21 -6 -21 -55z"/>
<path d="M4923 1172 c-34 -10 -63 -39 -64 -64 -2 -49 3 -74 22 -100 l19 -28
-30 -60 c-37 -73 -37 -82 -4 -78 21 2 30 14 53 68 16 39 33 66 44 68 15 3 17
-6 17 -67 0 -69 1 -71 25 -71 l25 0 0 170 0 170 -42 -1 c-24 -1 -53 -4 -65 -7z
m57 -98 c0 -63 -1 -65 -22 -59 -31 10 -45 25 -53 57 -8 31 22 68 55 68 18 0
20 -7 20 -66z"/>
<path d="M1135 984 c-11 -2 -40 -10 -65 -16 -70 -17 -177 -77 -238 -132 -101
-92 -162 -211 -183 -352 -10 -64 -9 -77 5 -99 19 -28 56 -33 80 -10 8 8 18 37
21 63 12 96 16 109 49 178 54 114 159 205 275 241 71 21 208 22 276 1 102 -32
209 -116 261 -204 32 -55 64 -150 64 -191 0 -18 7 -49 14 -68 12 -29 20 -35
44 -35 48 0 62 32 52 121 -11 91 -29 145 -80 230 -96 161 -274 267 -465 274
-49 2 -99 2 -110 -1z"/>
<path d="M3772 778 c2 -15 11 -24 26 -26 18 -3 22 1 22 22 0 21 -5 26 -26 26
-21 0 -25 -4 -22 -22z"/>
<path d="M3020 541 l0 -171 25 0 c25 0 25 1 25 80 l0 80 40 0 40 0 0 -80 c0
-79 0 -80 25 -80 l25 0 -2 168 c-3 159 -4 167 -23 167 -18 0 -20 -8 -23 -72
l-3 -73 -39 0 -39 0 -3 73 c-3 66 -5 72 -25 75 l-23 3 0 -170z"/>
<path d="M3295 688 c-17 -74 -65 -303 -65 -310 0 -4 11 -8 24 -8 20 0 24 6 30
40 6 37 8 40 40 40 31 0 34 -3 40 -40 5 -35 10 -40 32 -40 19 0 24 4 20 18 -3
9 -17 75 -32 147 -33 160 -38 175 -64 175 -12 0 -22 -8 -25 -22z m48 -160 c5
-35 4 -38 -19 -38 -28 0 -28 1 -12 72 12 57 17 52 31 -34z"/>
<path d="M3450 541 l0 -171 90 0 90 0 0 -30 c0 -23 4 -30 20 -30 17 0 20 7 20
45 0 28 -5 47 -15 52 -11 7 -15 38 -17 153 -3 142 -4 145 -25 148 -23 3 -23 3
-23 -147 l0 -151 -45 0 -44 0 -3 148 c-3 144 -3 147 -25 150 l-23 3 0 -170z"/>
<path d="M3710 541 l0 -171 25 0 25 0 -2 168 c-3 165 -3 167 -25 170 l-23 3 0
-170z"/>
<path d="M3810 540 l0 -170 25 0 25 0 0 170 0 170 -25 0 -25 0 0 -170z"/>
<path d="M1072 308 c9 -25 37 -33 55 -16 9 10 13 21 9 25 -5 5 -11 2 -13 -4
-5 -15 -33 -17 -33 -3 0 6 -5 10 -11 10 -6 0 -9 -5 -7 -12z"/>
<path d="M1512 308 c9 -25 37 -33 55 -16 9 10 13 21 9 25 -5 5 -11 2 -13 -4
-5 -15 -33 -17 -33 -3 0 6 -5 10 -11 10 -6 0 -9 -5 -7 -12z"/>
<path d="M1740 270 c0 -12 -10 -24 -24 -29 -28 -11 -36 -29 -36 -81 0 -52 8
-70 36 -81 13 -4 24 -15 24 -24 0 -8 9 -15 20 -15 11 0 20 7 20 14 0 8 12 21
28 28 25 12 27 17 27 78 0 61 -2 66 -27 78 -17 8 -28 21 -28 33 0 12 -7 19
-20 19 -13 0 -20 -7 -20 -20z m0 -110 c0 -33 -4 -60 -10 -60 -6 0 -10 27 -10
60 0 33 4 60 10 60 6 0 10 -27 10 -60z m65 0 c0 -34 -5 -55 -12 -57 -10 -4
-13 12 -13 57 0 45 3 61 13 58 7 -3 12 -24 12 -58z"/>
<path d="M147 263 c-4 -3 -7 -53 -7 -110 l0 -103 38 0 c51 0 73 18 74 59 1 35
-28 71 -58 71 -9 0 -14 11 -14 30 0 27 3 30 30 30 20 0 30 5 30 15 0 11 -11
15 -43 15 -24 0 -47 -3 -50 -7z m71 -147 c3 -26 -10 -45 -30 -46 -5 0 -8 18
-8 41 0 33 3 40 18 37 10 -2 18 -14 20 -32z"/>
<path d="M306 248 c-3 -13 -7 -54 -9 -92 -4 -49 -9 -72 -21 -78 -22 -12 -20
-28 3 -28 31 0 45 29 51 108 4 63 8 77 23 80 15 3 17 -7 17 -93 0 -84 2 -96
17 -93 14 3 16 17 15 103 -1 55 -1 103 -2 108 0 4 -20 7 -45 7 -38 0 -45 -3
-49 -22z"/>
<path d="M466 253 c-3 -10 -14 -60 -25 -110 -18 -91 -18 -93 0 -93 14 0 19 7
19 25 0 20 5 25 25 25 20 0 25 -5 25 -25 0 -19 5 -25 21 -25 15 0 19 5 15 18
-3 9 -12 51 -21 92 -21 101 -24 110 -40 110 -8 0 -16 -8 -19 -17z m33 -110 c1
-7 -6 -13 -15 -13 -11 0 -14 5 -10 16 3 9 6 25 7 37 1 20 2 20 9 -3 4 -14 8
-31 9 -37z"/>
<path d="M567 263 c-2 -5 -5 -54 -6 -110 -2 -98 -2 -103 18 -103 20 0 21 5 21
95 0 95 0 95 25 95 16 0 25 6 25 15 0 11 -11 15 -39 15 -22 0 -42 -3 -44 -7z"/>
<path d="M676 248 c-19 -27 -22 -135 -4 -173 9 -20 18 -25 49 -25 50 0 59 18
59 113 0 59 -4 77 -18 90 -26 24 -68 21 -86 -5z m69 -88 c0 -70 -1 -75 -22
-78 -22 -3 -23 -1 -23 78 0 79 1 81 23 78 21 -3 22 -8 22 -78z"/>
<path d="M838 197 c-3 -41 -12 -88 -21 -107 -19 -37 -22 -80 -7 -80 6 0 10 9
10 20 0 18 7 20 55 20 48 0 55 -2 55 -20 0 -11 7 -20 15 -20 10 0 15 10 15 30
0 17 -4 30 -10 30 -6 0 -10 40 -10 100 l0 100 -49 0 -48 0 -5 -73z m62 -42 l0
-85 -26 0 c-23 0 -25 3 -19 23 4 12 9 50 12 85 4 44 9 62 19 62 11 0 14 -19
14 -85z"/>
<path d="M980 160 c0 -91 3 -110 15 -110 12 0 15 19 15 110 0 91 -3 110 -15
110 -12 0 -15 -19 -15 -110z"/>
<path d="M1047 263 c-4 -3 -7 -53 -7 -110 0 -91 2 -104 16 -101 9 2 28 31 43
68 l26 64 3 -67 c2 -51 6 -67 17 -67 12 0 15 20 15 110 0 130 -12 142 -49 50
-27 -67 -38 -76 -38 -27 0 84 -6 101 -26 80z"/>
<path d="M1190 160 c0 -91 3 -110 15 -110 11 0 15 12 15 50 0 47 2 50 25 50
23 0 25 -3 25 -50 0 -43 3 -50 20 -50 19 0 20 7 20 111 0 100 -2 110 -17 107
-13 -2 -19 -16 -23 -48 -4 -37 -9 -45 -25 -45 -17 0 -20 8 -23 48 -2 33 -7 47
-18 47 -11 0 -14 -21 -14 -110z"/>
<path d="M1340 160 c0 -129 11 -141 52 -52 l26 57 1 -57 c1 -51 3 -58 21 -58
20 0 21 5 18 108 -4 130 -19 142 -58 42 l-25 -65 -3 68 c-2 51 -6 67 -17 67
-12 0 -15 -20 -15 -110z"/>
<path d="M1487 264 c-4 -4 -7 -54 -7 -111 0 -93 2 -104 17 -101 11 2 27 28 43
68 l25 65 3 -67 c2 -52 6 -68 17 -68 12 0 15 20 15 110 0 131 -13 143 -53 48
l-26 -63 -2 48 c-1 26 -2 52 -3 59 -1 14 -20 21 -29 12z"/>
<path d="M1886 255 c-30 -31 -33 -157 -5 -191 15 -18 73 -18 88 0 15 18 25 97
17 140 -8 43 -29 66 -61 66 -13 0 -30 -7 -39 -15z m62 -94 c3 -75 -5 -95 -35
-84 -9 4 -13 26 -13 77 0 76 4 89 30 84 12 -3 16 -20 18 -77z"/>
<path d="M2010 160 c0 -91 3 -110 15 -110 11 0 15 12 15 50 0 47 2 50 25 50
23 0 25 -3 25 -50 0 -44 3 -50 20 -50 20 0 21 5 18 108 -2 87 -6 107 -18 107
-11 0 -16 -13 -18 -47 -3 -43 -5 -48 -28 -48 -22 0 -24 4 -24 50 0 38 -4 50
-15 50 -12 0 -15 -19 -15 -110z"/>
<path d="M2190 231 c0 -70 -12 -130 -31 -150 -23 -25 -25 -71 -4 -71 8 0 15 9
15 20 0 17 7 20 49 20 40 0 50 -3 54 -20 3 -11 10 -20 16 -20 14 0 15 57 1 65
-6 3 -10 48 -10 101 l0 94 -45 0 -45 0 0 -39z m60 -76 l0 -85 -30 0 c-27 0
-29 2 -21 19 6 10 13 48 17 85 5 46 11 66 20 66 11 0 14 -20 14 -85z"/>
</g>
</svg>
